<?xml version="1.0" encoding="iso-8859-1"?>
<!-- Generator: Adobe Illustrator 16.0.0, SVG Export Plug-In . SVG Version: 6.00 Build 0)  -->
<!DOCTYPE svg PUBLIC "-//W3C//DTD SVG 1.1//EN" "http://www.w3.org/Graphics/SVG/1.1/DTD/svg11.dtd">
<svg version="1.1" id="Capa_1" xmlns="http://www.w3.org/2000/svg" xmlns:xlink="http://www.w3.org/1999/xlink" x="0px" y="0px"
	 width="39.122px" height="39.122px" viewBox="0 0 39.122 39.122" style="enable-background:new 0 0 39.122 39.122;"
	 xml:space="preserve">
<g>
	<path d="M33.756,7.277c-2.75-1.167-6.333,0.166-6.333,0.166C25.59,0.36,17.59,2.11,13.756,3.693
		c-3.833,1.584-4.583,5.75-4.583,5.75c-2.667-1.25-7.583-0.583-9,5.417s6.333,8.917,6.333,8.917s3.25,8.666,4.25,10.583
		s4.167,2.25,6.5,2.333c2.333,0.084,2.167,0.25,6.583,0.084c4.417-0.167,5.333-3.334,6.25-5.25c0.917-1.917,3.25-8.334,3.25-8.334
		s4.167,0,5.5-5.833C40.173,11.527,36.506,8.443,33.756,7.277z M28.34,31.193c-1.417,2.584-1.667,3.75-5.417,3.75
		s-9.917-0.5-10.5-1.083S8.34,24.527,8.756,23.693c0,0,3.417,0,5.25-1.416c0,0,7,4.333,11.667-1c0,0,3.25,2.833,5.167,2.416
		C30.84,23.693,29.756,28.61,28.34,31.193z M36.09,19.277c-1.333,1.666-4.667,2.583-6.083,2.083s-2.25-0.583-3-1.5
		s-0.667-1.583-1.333-1.583c-0.667,0-1.5,2.833-3.583,3.166c-2.083,0.334-5,0.334-5.75-0.25c-0.75-0.583-1-2.166-1.5-2.333
		s-1.25,1-1.75,1.583c-0.5,0.584-2.667,1.25-4.333,1.25s-3.5,0-5.25-2s-2-4.333-0.917-6c1.083-1.666,2.333-2.583,3.417-2.583
		c0.92,0,2.917,0.083,3.75,1.25s1.083,2.667,1.833,2.667s1.417-0.334,1.167-1.334s-2.167-3.416-1.583-4.583
		c0.581-1.167,1.915-3.333,4.415-4.167c2.5-0.833,5.25-1.166,6.917-0.416s3.167,2.333,3,4.25c-0.167,1.916-0.417,3.333,0.5,3.583
		s1.333-0.25,1.583-1.333c0.25-1.084,2.083-2.084,3.167-2.084S35.84,9.36,36.59,12.36S37.423,17.61,36.09,19.277z M16.34,26.277
		c-0.25-1.084-0.829-1.365-1.25-1.084c-0.75,0.5-0.167,1.584,0.417,3.167s1.083,2.917,1.583,2.917s0.833-0.5,0.583-1.25
		S16.59,27.36,16.34,26.277z M25.006,24.193c-0.667-0.166-1.25,1.084-1.833,3.584s-0.25,3.416,0.167,3.416s0.333-0.25,0.667-1.25
		s0.667-2.5,1.083-3.5S25.519,24.321,25.006,24.193z"/>
</g>
<g>
</g>
<g>
</g>
<g>
</g>
<g>
</g>
<g>
</g>
<g>
</g>
<g>
</g>
<g>
</g>
<g>
</g>
<g>
</g>
<g>
</g>
<g>
</g>
<g>
</g>
<g>
</g>
<g>
</g>
</svg>
