<?xml version="1.0" encoding="iso-8859-1"?>
<!-- Generator: Adobe Illustrator 16.0.0, SVG Export Plug-In . SVG Version: 6.00 Build 0)  -->
<!DOCTYPE svg PUBLIC "-//W3C//DTD SVG 1.1//EN" "http://www.w3.org/Graphics/SVG/1.1/DTD/svg11.dtd">
<svg version="1.1" id="Capa_1" xmlns="http://www.w3.org/2000/svg" xmlns:xlink="http://www.w3.org/1999/xlink" x="0px" y="0px"
	 width="23.56px" height="23.56px" viewBox="0 0 23.56 23.56" style="enable-background:new 0 0 23.56 23.56;" xml:space="preserve"
	>
<g>
	<path d="M20.832,7.005c-0.833-1-3.25-1.416-3.25-1.416s1.167-2,1.417-3s0.167-2.584-0.417-2.584s-1.583,1.834-2.25,3
		c-0.667,1.167-1.833,1.5-2.583,2.084c-0.75,0.583-0.667,0.083-1-0.834c-0.333-0.916-1.25-1.5-1.25-1.5
		c-0.417,0.084-1.083,2.417-1.417,2.667s-1-0.583-1.75-1.75s-0.417-3.167-0.75-3.583c-0.333-0.417-1.417,0.666-1.833,2.5
		C5.332,4.422,6.832,5.922,6.832,5.922c-2.333-0.083-3.25,1-5.5,3.917c-2.25,2.916-0.667,12.166,4.583,13.333
		s11.75-0.5,13.917-2.333c2.167-1.834,2.917-3,3.333-5.917C23.582,12.005,21.665,8.005,20.832,7.005z M15.665,5.005
		c0,0,2.25-3,2.25-2.583s-0.083,2-0.75,2.417C16.498,5.255,15.165,5.505,15.665,5.005z M19.082,18.755c-1.75,1.5-3.833,2.75-7.25,3
		s-8-0.583-9.167-5.5c-1.167-4.916,1.75-9,5.25-9.166c1.212-0.058,2.167,0.333,1.917,0.833s-0.25,1.083-1.417,1.417
		c-1.167,0.333-2,0.083-2,0.666c0,0.584,1,1.167,1.833,1.167s1.333,0.25,2-0.75s1-2.167,1.167-1.667s2,2.5,3.083,2.584
		c1.083,0.083,2.417-0.584,2.167-1.167s-0.75-0.333-1.667-0.917c-0.917-0.583-2.333-1.916-1.5-2.166s3.5-0.084,4.75,0.5
		c1.25,0.583,3.083,3.166,2.917,5.583C20.998,15.589,20.832,17.255,19.082,18.755z M5.582,12.672c0-0.833,0-1.417-0.417-1.5
		c-0.327-0.065-0.833,0.833-0.667,2c0.167,1.167,0.667,3.083,1.167,3.083s1.25-0.25,0.667-1S5.582,13.505,5.582,12.672z"/>
</g>
<g>
</g>
<g>
</g>
<g>
</g>
<g>
</g>
<g>
</g>
<g>
</g>
<g>
</g>
<g>
</g>
<g>
</g>
<g>
</g>
<g>
</g>
<g>
</g>
<g>
</g>
<g>
</g>
<g>
</g>
</svg>
